<svg xmlns="http://www.w3.org/2000/svg" viewBox="0 0 1200 900" role="img" aria-labelledby="title desc">
  <title id="title">Strength training illustration</title>
  <desc id="desc">Bright fitness artwork with a person lifting weights in a gym scene.</desc>
  <defs>
    <linearGradient id="bg" x1="0%" y1="0%" x2="100%" y2="100%">
      <stop offset="0%" stop-color="#fff4cf"/>
      <stop offset="45%" stop-color="#ffd2a8"/>
      <stop offset="100%" stop-color="#ff8f70"/>
    </linearGradient>
    <linearGradient id="floor" x1="0%" y1="0%" x2="100%" y2="0%">
      <stop offset="0%" stop-color="#ffb86c"/>
      <stop offset="100%" stop-color="#ff6b6b"/>
    </linearGradient>
  </defs>
  <rect width="1200" height="900" fill="url(#bg)"/>
  <circle cx="220" cy="180" r="110" fill="#ffffff" opacity="0.35"/>
  <circle cx="980" cy="220" r="150" fill="#fff1f1" opacity="0.4"/>
  <circle cx="860" cy="110" r="44" fill="#fff" opacity="0.7"/>
  <rect x="0" y="700" width="1200" height="200" fill="url(#floor)"/>
  <rect x="120" y="260" width="78" height="360" rx="28" fill="#31304d" opacity="0.18"/>
  <rect x="1000" y="220" width="78" height="400" rx="28" fill="#31304d" opacity="0.18"/>
  <rect x="170" y="290" width="860" height="28" rx="14" fill="#31304d" opacity="0.14"/>
  <rect x="430" y="280" width="340" height="24" rx="12" fill="#31304d" opacity="0.14"/>
  <ellipse cx="640" cy="742" rx="180" ry="52" fill="#7a2e3a" opacity="0.18"/>
  <circle cx="610" cy="250" r="62" fill="#1d3557"/>
  <rect x="560" y="316" width="110" height="178" rx="48" fill="#264653"/>
  <rect x="505" y="334" width="64" height="155" rx="26" fill="#264653"/>
  <rect x="671" y="334" width="64" height="155" rx="26" fill="#264653"/>
  <rect x="470" y="474" width="92" height="46" rx="18" transform="rotate(18 470 474)" fill="#264653"/>
  <rect x="720" y="500" width="92" height="46" rx="18" transform="rotate(-18 720 500)" fill="#264653"/>
  <rect x="560" y="472" width="58" height="190" rx="24" transform="rotate(12 560 472)" fill="#e76f51"/>
  <rect x="660" y="472" width="58" height="190" rx="24" transform="rotate(-12 660 472)" fill="#e76f51"/>
  <rect x="500" y="612" width="72" height="34" rx="14" fill="#1d3557"/>
  <rect x="646" y="612" width="72" height="34" rx="14" fill="#1d3557"/>
  <rect x="406" y="405" width="388" height="22" rx="11" fill="#1d3557"/>
  <rect x="342" y="390" width="44" height="54" rx="8" fill="#2d3142"/>
  <rect x="292" y="382" width="32" height="70" rx="8" fill="#2d3142"/>
  <rect x="812" y="390" width="44" height="54" rx="8" fill="#2d3142"/>
  <rect x="874" y="382" width="32" height="70" rx="8" fill="#2d3142"/>
</svg>
